<svg xmlns="http://www.w3.org/2000/svg" viewBox="436 605 250 250">
  <rect x="436" y="605" width="250" height="250" rx="56" fill="#3d68ff"/>
  <path fill="#ffffff" transform="translate(447.522 827.266)" d="M 113.171875 -199.078125 C 127.253906 -199.078125 140.550781 -196.4375 153.0625 -191.15625 C 165.570312 -185.875 176.691406 -178.550781 186.421875 -169.1875 C 196.160156 -159.832031 203.804688 -149.035156 209.359375 -136.796875 C 214.921875 -124.566406 217.703125 -111.40625 217.703125 -97.3125 C 217.703125 -83.226562 214.921875 -70.066406 209.359375 -57.828125 C 203.804688 -45.597656 196.160156 -34.847656 186.421875 -25.578125 C 176.691406 -16.304688 165.570312 -9.03125 153.0625 -3.75 C 140.550781 1.53125 127.253906 4.171875 113.171875 4.171875 C 99.078125 4.171875 85.726562 1.53125 73.125 -3.75 C 60.519531 -9.03125 49.351562 -16.304688 39.625 -25.578125 C 29.894531 -34.847656 22.25 -45.597656 16.6875 -57.828125 C 11.125 -70.066406 8.34375 -83.226562 8.34375 -97.3125 C 8.34375 -111.40625 11.125 -124.566406 16.6875 -136.796875 C 22.25 -149.035156 29.894531 -159.832031 39.625 -169.1875 C 49.351562 -178.550781 60.519531 -185.875 73.125 -191.15625 C 85.726562 -196.4375 99.078125 -199.078125 113.171875 -199.078125 Z M 113.171875 -44.203125 C 122.992188 -44.203125 131.9375 -46.566406 140 -51.296875 C 148.0625 -56.023438 154.5 -62.421875 159.3125 -70.484375 C 164.132812 -78.546875 166.546875 -87.488281 166.546875 -97.3125 C 166.546875 -107.132812 164.132812 -116.078125 159.3125 -124.140625 C 154.5 -132.210938 148.0625 -138.65625 140 -143.46875 C 131.9375 -148.289062 122.992188 -150.703125 113.171875 -150.703125 C 103.335938 -150.703125 94.390625 -148.289062 86.328125 -143.46875 C 78.265625 -138.65625 71.820312 -132.210938 67 -124.140625 C 62.1875 -116.078125 59.78125 -107.132812 59.78125 -97.3125 C 59.78125 -87.488281 62.1875 -78.546875 67 -70.484375 C 71.820312 -62.421875 78.265625 -56.023438 86.328125 -51.296875 C 94.390625 -46.566406 103.335938 -44.203125 113.171875 -44.203125 Z"/>
</svg>
